<svg width="28" height="30" viewBox="0 0 28 30" fill="none" xmlns="http://www.w3.org/2000/svg">
<path d="M27.6307 19.6673L24.4751 8.29347C23.8012 5.86046 22.3329 3.72276 20.3038 2.22059C18.2748 0.718416 15.8016 -0.061897 13.2778 0.00383783C10.7541 0.0695727 8.32483 0.977578 6.37672 2.58334C4.42861 4.1891 3.07358 6.40034 2.52729 8.86513L0.0864937 19.8493C-0.0316104 20.3815 -0.0287297 20.9334 0.0949235 21.4642C0.218577 21.9951 0.459847 22.4915 0.800933 22.9167C1.14202 23.3419 1.57422 23.685 2.06564 23.9209C2.55707 24.1568 3.09518 24.2793 3.64028 24.2794H8.01818C8.29674 25.6513 9.04102 26.8846 10.1249 27.7705C11.2088 28.6564 12.5656 29.1404 13.9654 29.1404C15.3653 29.1404 16.7221 28.6564 17.806 27.7705C18.8898 26.8846 19.6341 25.6513 19.9127 24.2794H24.1243C24.6852 24.2792 25.2384 24.1493 25.7408 23.9001C26.2433 23.6508 26.6813 23.2889 27.0209 22.8424C27.3604 22.396 27.5922 21.8772 27.6982 21.3264C27.8042 20.7756 27.7815 20.2078 27.632 19.6673H27.6307ZM13.9654 26.7069C13.215 26.7038 12.4839 26.4689 11.8721 26.0344C11.2603 25.5998 10.7977 24.9869 10.5476 24.2794H17.3833C17.1331 24.9869 16.6705 25.5998 16.0587 26.0344C15.4469 26.4689 14.7158 26.7038 13.9654 26.7069ZM25.0892 21.3726C24.976 21.5227 24.8292 21.6442 24.6606 21.7275C24.492 21.8107 24.3062 21.8533 24.1182 21.852H3.64028C3.45853 21.8519 3.27912 21.8111 3.11528 21.7325C2.95143 21.6538 2.80734 21.5394 2.69364 21.3976C2.57993 21.2558 2.49952 21.0903 2.45834 20.9133C2.41715 20.7363 2.41624 20.5523 2.45568 20.3749L4.89648 9.39067C5.32657 7.45625 6.39095 5.72111 7.92042 4.46107C9.44989 3.20104 11.3567 2.48844 13.3377 2.43654C15.3186 2.38464 17.2601 2.99643 18.8535 4.17466C20.4468 5.35288 21.6006 7.02992 22.1314 8.93917L25.287 20.313C25.3386 20.4928 25.3475 20.6822 25.3132 20.8661C25.2788 21.05 25.2022 21.2234 25.0892 21.3726Z" fill="#192E35"/>
</svg>
