<svg width="27" height="28" viewBox="0 0 27 28" fill="none" xmlns="http://www.w3.org/2000/svg">
<path d="M25.2569 5.08502C24.9441 4.70965 24.5525 4.40776 24.1099 4.20077C23.6673 3.99379 23.1846 3.8868 22.696 3.8874H4.71711L4.67041 3.49708C4.57483 2.68579 4.18489 1.93776 3.57452 1.39482C2.96415 0.85188 2.17577 0.551772 1.35887 0.551392L1.112 0.551392C0.81708 0.551392 0.534238 0.668549 0.325698 0.877089C0.117157 1.08563 0 1.36847 0 1.66339C0 1.95831 0.117157 2.24116 0.325698 2.4497C0.534238 2.65824 0.81708 2.77539 1.112 2.77539H1.35887C1.63123 2.77543 1.89411 2.87543 2.09765 3.05641C2.30118 3.2374 2.43122 3.4868 2.46308 3.75729L3.9932 16.7677C4.15205 18.1208 4.80215 19.3684 5.82011 20.2739C6.83807 21.1793 8.15303 21.6794 9.5154 21.6794H21.128C21.423 21.6794 21.7058 21.5623 21.9143 21.3537C22.1229 21.1452 22.24 20.8623 22.24 20.5674C22.24 20.2725 22.1229 19.9897 21.9143 19.7811C21.7058 19.5726 21.423 19.4554 21.128 19.4554H9.5154C8.82713 19.4535 8.15631 19.2387 7.5949 18.8405C7.03349 18.4424 6.60897 17.8803 6.37955 17.2314H19.6346C20.9382 17.2315 22.2004 16.7735 23.2006 15.9375C24.2008 15.1015 24.8755 13.9407 25.1068 12.6578L25.9797 7.8161C26.0668 7.33572 26.0472 6.84206 25.9223 6.37009C25.7974 5.89813 25.5702 5.45941 25.2569 5.08502ZM23.7968 7.42134L22.9228 12.263C22.7839 13.0336 22.3784 13.7308 21.7773 14.2326C21.1761 14.7343 20.4176 15.0086 19.6346 15.0074H6.02594L4.97954 6.1114H22.696C22.8593 6.11042 23.0209 6.14545 23.1691 6.21399C23.3174 6.28252 23.4488 6.38289 23.5539 6.50795C23.659 6.633 23.7352 6.77968 23.7772 6.93755C23.8192 7.09541 23.8259 7.26059 23.7968 7.42134Z" fill="#192E35"/>
<path d="M7.78386 27.2394C9.01215 27.2394 10.0079 26.2437 10.0079 25.0154C10.0079 23.7871 9.01215 22.7914 7.78386 22.7914C6.55558 22.7914 5.55986 23.7871 5.55986 25.0154C5.55986 26.2437 6.55558 27.2394 7.78386 27.2394Z" fill="#192E35"/>
<path d="M18.9039 27.2394C20.1322 27.2394 21.1279 26.2437 21.1279 25.0154C21.1279 23.7871 20.1322 22.7914 18.9039 22.7914C17.6756 22.7914 16.6799 23.7871 16.6799 25.0154C16.6799 26.2437 17.6756 27.2394 18.9039 27.2394Z" fill="#192E35"/>
</svg>
