<svg width="27" height="28" viewBox="0 0 27 28" fill="none" xmlns="http://www.w3.org/2000/svg">
<path d="M27 11.6667C27 11.5816 26.991 11.4967 26.973 11.4136L25.5105 4.56758C25.2388 3.2682 24.5445 2.1052 23.5441 1.27361C22.5438 0.442008 21.2981 -0.00762575 20.016 9.787e-05H6.984C5.70268 -0.00655246 4.45807 0.443572 3.45862 1.27508C2.45917 2.10659 1.76557 3.26899 1.494 4.56758L0.0270015 11.4136C0.00901065 11.4967 -4.46174e-05 11.5816 1.54057e-06 11.6667V12.8334C-0.000906117 13.9692 0.399288 15.0661 1.125 15.9169V22.1667C1.12679 23.7132 1.71999 25.1959 2.7745 26.2894C3.829 27.383 5.25871 27.9981 6.75 28H20.25C21.7413 27.9981 23.171 27.383 24.2255 26.2894C25.28 25.1959 25.8732 23.7132 25.875 22.1667V15.9169C26.6007 15.0661 27.0009 13.9692 27 12.8334V11.6667ZM2.25 11.7939L3.69 5.07391C3.85317 4.29488 4.26939 3.59759 4.86902 3.09873C5.46864 2.59986 6.21528 2.32969 6.984 2.33342H7.875V5.83341C7.875 6.14283 7.99353 6.43957 8.20451 6.65837C8.41548 6.87716 8.70163 7.00007 9 7.00007C9.29837 7.00007 9.58452 6.87716 9.7955 6.65837C10.0065 6.43957 10.125 6.14283 10.125 5.83341V2.33342H16.875V5.83341C16.875 6.14283 16.9935 6.43957 17.2045 6.65837C17.4155 6.87716 17.7016 7.00007 18 7.00007C18.2984 7.00007 18.5845 6.87716 18.7955 6.65837C19.0065 6.43957 19.125 6.14283 19.125 5.83341V2.33342H20.016C20.7847 2.32969 21.5314 2.59986 22.131 3.09873C22.7306 3.59759 23.1468 4.29488 23.31 5.07391L24.75 11.7939V12.8334C24.75 13.4522 24.5129 14.0457 24.091 14.4833C23.669 14.9209 23.0967 15.1667 22.5 15.1667H21.375C20.7783 15.1667 20.206 14.9209 19.784 14.4833C19.3621 14.0457 19.125 13.4522 19.125 12.8334C19.125 12.524 19.0065 12.2272 18.7955 12.0084C18.5845 11.7896 18.2984 11.6667 18 11.6667C17.7016 11.6667 17.4155 11.7896 17.2045 12.0084C16.9935 12.2272 16.875 12.524 16.875 12.8334C16.875 13.4522 16.6379 14.0457 16.216 14.4833C15.794 14.9209 15.2217 15.1667 14.625 15.1667H12.375C11.7783 15.1667 11.206 14.9209 10.784 14.4833C10.3621 14.0457 10.125 13.4522 10.125 12.8334C10.125 12.524 10.0065 12.2272 9.7955 12.0084C9.58452 11.7896 9.29837 11.6667 9 11.6667C8.70163 11.6667 8.41548 11.7896 8.20451 12.0084C7.99353 12.2272 7.875 12.524 7.875 12.8334C7.875 13.4522 7.63795 14.0457 7.21599 14.4833C6.79403 14.9209 6.22174 15.1667 5.625 15.1667H4.5C3.90326 15.1667 3.33097 14.9209 2.90901 14.4833C2.48705 14.0457 2.25 13.4522 2.25 12.8334V11.7939ZM20.25 25.6667H6.75C5.8549 25.6667 4.99645 25.2979 4.36352 24.6416C3.73058 23.9852 3.375 23.0949 3.375 22.1667V17.3519C3.74243 17.4505 4.12046 17.5003 4.5 17.5H5.625C6.26379 17.5004 6.8953 17.3593 7.47732 17.0863C8.05934 16.8133 8.57846 16.4146 9 15.9169C9.42154 16.4146 9.94066 16.8133 10.5227 17.0863C11.1047 17.3593 11.7362 17.5004 12.375 17.5H14.625C15.2638 17.5004 15.8953 17.3593 16.4773 17.0863C17.0593 16.8133 17.5785 16.4146 18 15.9169C18.4215 16.4146 18.9407 16.8133 19.5227 17.0863C20.1047 17.3593 20.7362 17.5004 21.375 17.5H22.5C22.8795 17.5003 23.2576 17.4505 23.625 17.3519V22.1667C23.625 23.0949 23.2694 23.9852 22.6365 24.6416C22.0035 25.2979 21.1451 25.6667 20.25 25.6667Z" fill="#192E35"/>
</svg>
