<svg width="14" height="14" viewBox="0 0 14 14" fill="none" xmlns="http://www.w3.org/2000/svg">
<path d="M10.8826 0.542521L3.77064 7.65452C3.499 7.92468 3.28366 8.24605 3.13707 8.60001C2.99048 8.95397 2.91556 9.33349 2.91664 9.7166V10.5C2.91664 10.6547 2.9781 10.8031 3.08749 10.9125C3.19689 11.0219 3.34526 11.0833 3.49997 11.0833H4.28339C4.6665 11.0844 5.04602 11.0095 5.39998 10.8629C5.75394 10.7163 6.0753 10.501 6.34547 10.2293L13.4575 3.11735C13.7984 2.77562 13.9898 2.31263 13.9898 1.82994C13.9898 1.34724 13.7984 0.884255 13.4575 0.542521C13.1108 0.211126 12.6496 0.0261841 12.17 0.0261841C11.6904 0.0261841 11.2293 0.211126 10.8826 0.542521ZM12.6326 2.29252L5.52064 9.40452C5.19171 9.73143 4.74714 9.91547 4.28339 9.91668H4.0833V9.7166C4.08452 9.25285 4.26855 8.80828 4.59547 8.47935L11.7075 1.36735C11.8321 1.24833 11.9977 1.18191 12.17 1.18191C12.3424 1.18191 12.508 1.24833 12.6326 1.36735C12.7551 1.49015 12.8239 1.65651 12.8239 1.82994C12.8239 2.00337 12.7551 2.16972 12.6326 2.29252Z" fill="#192E35"/>
<path d="M13.4167 5.23775C13.2619 5.23775 13.1136 5.2992 13.0042 5.4086C12.8948 5.518 12.8333 5.66637 12.8333 5.82108V8.74999H10.5C10.0359 8.74999 9.59074 8.93437 9.26256 9.26256C8.93437 9.59074 8.74999 10.0359 8.74999 10.5V12.8333H2.91666C2.45254 12.8333 2.00742 12.649 1.67923 12.3208C1.35104 11.9926 1.16667 11.5475 1.16667 11.0833V2.91666C1.16667 2.45254 1.35104 2.00742 1.67923 1.67923C2.00742 1.35104 2.45254 1.16667 2.91666 1.16667H8.19116C8.34587 1.16667 8.49424 1.10521 8.60364 0.995812C8.71304 0.886416 8.77449 0.738042 8.77449 0.583333C8.77449 0.428623 8.71304 0.28025 8.60364 0.170854C8.49424 0.0614581 8.34587 0 8.19116 0L2.91666 0C2.1434 0.00092625 1.40207 0.308514 0.855294 0.855294C0.308514 1.40207 0.00092625 2.1434 0 2.91666L0 11.0833C0.00092625 11.8566 0.308514 12.5979 0.855294 13.1447C1.40207 13.6915 2.1434 13.9991 2.91666 14H9.53341C9.91661 14.0011 10.2962 13.9262 10.6503 13.7796C11.0043 13.633 11.3258 13.4176 11.5961 13.146L13.1454 11.5955C13.4171 11.3253 13.6325 11.004 13.7792 10.65C13.9259 10.2961 14.0009 9.91655 14 9.53341V5.82108C14 5.66637 13.9385 5.518 13.8291 5.4086C13.7197 5.2992 13.5714 5.23775 13.4167 5.23775ZM10.7712 12.3212C10.5368 12.5551 10.2402 12.717 9.91666 12.7878V10.5C9.91666 10.3453 9.97812 10.1969 10.0875 10.0875C10.1969 9.97812 10.3453 9.91666 10.5 9.91666H12.7896C12.7174 10.2395 12.5557 10.5355 12.3229 10.7707L10.7712 12.3212Z" fill="#192E35"/>
</svg>
