<svg width="30" height="26" viewBox="0 0 30 26" fill="none" xmlns="http://www.w3.org/2000/svg">
<path d="M21.8722 0C20.4652 0.0215864 19.0889 0.408996 17.8823 1.1231C16.6757 1.83721 15.6814 2.85274 15 4.06712C14.3186 2.85274 13.3243 1.83721 12.1177 1.1231C10.9111 0.408996 9.53477 0.0215864 8.12777 0C5.88485 0.0961204 3.77166 1.06393 2.24987 2.69198C0.728082 4.32003 -0.0786051 6.47599 0.00604894 8.68884C0.00604894 14.2928 5.98614 20.4132 11.0016 24.5629C12.1214 25.4911 13.5373 26 15 26C16.4627 26 17.8786 25.4911 18.9984 24.5629C24.0139 20.4132 29.994 14.2928 29.994 8.68884C30.0786 6.47599 29.2719 4.32003 27.7501 2.69198C26.2283 1.06393 24.1151 0.0961204 21.8722 0ZM17.3928 22.6773C16.723 23.2336 15.8756 23.5386 15 23.5386C14.1244 23.5386 13.277 23.2336 12.6072 22.6773C6.18731 17.3641 2.50504 12.2667 2.50504 8.68884C2.41963 7.12943 2.96281 5.59996 4.01614 4.43402C5.06946 3.26808 6.54745 2.56025 8.12777 2.46492C9.70809 2.56025 11.1861 3.26808 12.2394 4.43402C13.2927 5.59996 13.8359 7.12943 13.7505 8.68884C13.7505 9.01571 13.8821 9.32919 14.1165 9.56032C14.3508 9.79145 14.6686 9.9213 15 9.9213C15.3314 9.9213 15.6492 9.79145 15.8835 9.56032C16.1179 9.32919 16.2495 9.01571 16.2495 8.68884C16.1641 7.12943 16.7073 5.59996 17.7606 4.43402C18.8139 3.26808 20.2919 2.56025 21.8722 2.46492C23.4525 2.56025 24.9305 3.26808 25.9839 4.43402C27.0372 5.59996 27.5804 7.12943 27.495 8.68884C27.495 12.2667 23.8127 17.3641 17.3928 22.6723V22.6773Z" fill="#192E35"/>
</svg>
