<svg width="25" height="25" viewBox="0 0 25 25" fill="none" xmlns="http://www.w3.org/2000/svg">
<path d="M1.00013 4.75087H3.73648C3.95114 5.5407 4.41974 6.23795 5.06998 6.73505C5.72021 7.23215 6.51596 7.50148 7.33444 7.50148C8.15292 7.50148 8.94867 7.23215 9.5989 6.73505C10.2491 6.23795 10.7177 5.5407 10.9324 4.75087H23.0029C23.2682 4.75087 23.5226 4.6455 23.7101 4.45794C23.8977 4.27038 24.0031 4.01599 24.0031 3.75074C24.0031 3.48549 23.8977 3.2311 23.7101 3.04354C23.5226 2.85598 23.2682 2.75061 23.0029 2.75061H10.9324C10.7177 1.96078 10.2491 1.26353 9.5989 0.766426C8.94867 0.269326 8.15292 0 7.33444 0C6.51596 0 5.72021 0.269326 5.06998 0.766426C4.41974 1.26353 3.95114 1.96078 3.73648 2.75061H1.00013C0.734878 2.75061 0.480491 2.85598 0.292931 3.04354C0.10537 3.2311 0 3.48549 0 3.75074C0 4.01599 0.10537 4.27038 0.292931 4.45794C0.480491 4.6455 0.734878 4.75087 1.00013 4.75087ZM7.33394 2.00052C7.6801 2.00052 8.01849 2.10316 8.30631 2.29548C8.59414 2.4878 8.81847 2.76115 8.95094 3.08096C9.08341 3.40077 9.11807 3.75268 9.05053 4.09219C8.983 4.4317 8.81631 4.74356 8.57154 4.98833C8.32676 5.23311 8.0149 5.3998 7.67539 5.46733C7.33588 5.53487 6.98397 5.50021 6.66416 5.36774C6.34435 5.23527 6.071 5.01094 5.87868 4.72311C5.68636 4.43529 5.58372 4.0969 5.58372 3.75074C5.58425 3.28671 5.76881 2.84184 6.09693 2.51373C6.42505 2.18561 6.86991 2.00104 7.33394 2.00052Z" fill="white"/>
<path d="M23.0028 11.0016H20.2665C20.0522 10.2116 19.5838 9.51413 18.9336 9.01682C18.2834 8.51951 17.4876 8.25006 16.669 8.25006C15.8505 8.25006 15.0547 8.51951 14.4045 9.01682C13.7543 9.51413 13.2859 10.2116 13.0716 11.0016H1.00002C0.734771 11.0016 0.480384 11.107 0.292824 11.2946C0.105264 11.4821 -0.000106812 11.7365 -0.000106812 12.0018C-0.000106812 12.267 0.105264 12.5214 0.292824 12.709C0.480384 12.8965 0.734771 13.0019 1.00002 13.0019H13.0716C13.2859 13.7919 13.7543 14.4894 14.4045 14.9867C15.0547 15.484 15.8505 15.7535 16.669 15.7535C17.4876 15.7535 18.2834 15.484 18.9336 14.9867C19.5838 14.4894 20.0522 13.7919 20.2665 13.0019H23.0028C23.2681 13.0019 23.5225 12.8965 23.71 12.709C23.8976 12.5214 24.003 12.267 24.003 12.0018C24.003 11.7365 23.8976 11.4821 23.71 11.2946C23.5225 11.107 23.2681 11.0016 23.0028 11.0016ZM16.669 13.752C16.3229 13.752 15.9845 13.6494 15.6967 13.457C15.4088 13.2647 15.1845 12.9914 15.052 12.6716C14.9196 12.3517 14.8849 11.9998 14.9524 11.6603C15.02 11.3208 15.1867 11.009 15.4314 10.7642C15.6762 10.5194 15.9881 10.3527 16.3276 10.2852C16.6671 10.2176 17.019 10.2523 17.3388 10.3848C17.6586 10.5173 17.932 10.7416 18.1243 11.0294C18.3166 11.3172 18.4193 11.6556 18.4193 12.0018C18.4187 12.4658 18.2342 12.9107 17.906 13.2388C17.5779 13.5669 17.1331 13.7515 16.669 13.752Z" fill="white"/>
<path d="M23.0028 19.2527H10.9323C10.7176 18.4629 10.249 17.7657 9.5988 17.2686C8.94856 16.7715 8.15282 16.5021 7.33433 16.5021C6.51585 16.5021 5.72011 16.7715 5.06987 17.2686C4.41963 17.7657 3.95104 18.4629 3.73637 19.2527H1.00002C0.734771 19.2527 0.480384 19.3581 0.292824 19.5457C0.105264 19.7332 -0.000106812 19.9876 -0.000106812 20.2529C-0.000106812 20.5181 0.105264 20.7725 0.292824 20.9601C0.480384 21.1476 0.734771 21.253 1.00002 21.253H3.73637C3.95104 22.0428 4.41963 22.7401 5.06987 23.2372C5.72011 23.7343 6.51585 24.0036 7.33433 24.0036C8.15282 24.0036 8.94856 23.7343 9.5988 23.2372C10.249 22.7401 10.7176 22.0428 10.9323 21.253H23.0028C23.2681 21.253 23.5225 21.1476 23.71 20.9601C23.8976 20.7725 24.003 20.5181 24.003 20.2529C24.003 19.9876 23.8976 19.7332 23.71 19.5457C23.5225 19.3581 23.2681 19.2527 23.0028 19.2527ZM7.33383 22.0031C6.98767 22.0031 6.64928 21.9005 6.36146 21.7081C6.07364 21.5158 5.84931 21.2425 5.71684 20.9227C5.58437 20.6028 5.54971 20.2509 5.61724 19.9114C5.68477 19.5719 5.85146 19.2601 6.09624 19.0153C6.34101 18.7705 6.65287 18.6038 6.99238 18.5363C7.33189 18.4688 7.6838 18.5034 8.00361 18.6359C8.32343 18.7684 8.59677 18.9927 8.78909 19.2805C8.98141 19.5683 9.08406 19.9067 9.08406 20.2529C9.08326 20.7168 8.89861 21.1615 8.57055 21.4896C8.24249 21.8177 7.79778 22.0023 7.33383 22.0031Z" fill="white"/>
</svg>
