<svg width="26" height="26" viewBox="0 0 26 26" fill="none" xmlns="http://www.w3.org/2000/svg">
<path d="M24.367 9.5352L16.3732 1.54039C15.3839 0.55394 14.0438 0 12.6467 0C11.2496 0 9.90948 0.55394 8.92013 1.54039L0.926382 9.5352C0.631741 9.82795 0.39814 10.1763 0.239122 10.56C0.0801032 10.9437 -0.00117024 11.3551 1.27304e-05 11.7705V22.1165C1.27304e-05 22.9551 0.333116 23.7592 0.926044 24.3522C1.51897 24.9451 2.32315 25.2782 3.16168 25.2782H22.1317C22.9702 25.2782 23.7744 24.9451 24.3673 24.3522C24.9603 23.7592 25.2934 22.9551 25.2934 22.1165V11.7705C25.2945 11.3551 25.2133 10.9437 25.0543 10.56C24.8952 10.1763 24.6616 9.82795 24.367 9.5352ZM15.8084 23.1704H9.48502V19.0244C9.48502 18.1859 9.81812 17.3817 10.4111 16.7888C11.004 16.1959 11.8082 15.8628 12.6467 15.8628C13.4852 15.8628 14.2894 16.1959 14.8823 16.7888C15.4753 17.3817 15.8084 18.1859 15.8084 19.0244V23.1704ZM23.1856 22.1165C23.1856 22.396 23.0746 22.6641 22.8769 22.8617C22.6793 23.0594 22.4112 23.1704 22.1317 23.1704H17.9161V19.0244C17.9161 17.6269 17.361 16.2866 16.3728 15.2984C15.3845 14.3101 14.0442 13.755 12.6467 13.755C11.2491 13.755 9.90884 14.3101 8.92063 15.2984C7.93241 16.2866 7.37724 17.6269 7.37724 19.0244V23.1704H3.16168C2.88217 23.1704 2.61411 23.0594 2.41647 22.8617C2.21883 22.6641 2.10779 22.396 2.10779 22.1165V11.7705C2.10877 11.4912 2.2197 11.2235 2.41658 11.0254L10.4103 3.03375C11.0044 2.44245 11.8085 2.11049 12.6467 2.11049C13.4849 2.11049 14.289 2.44245 14.883 3.03375L22.8768 11.0286C23.0729 11.2259 23.1838 11.4923 23.1856 11.7705V22.1165Z" fill="#192E35"/>
</svg>
