<svg width="15" height="15" viewBox="0 0 15 15" fill="none" xmlns="http://www.w3.org/2000/svg">
<path d="M14.2669 0.733968C13.9638 0.428107 13.5863 0.206481 13.1714 0.090923C12.7566 -0.0246346 12.3189 -0.030137 11.9013 0.074958C8.66401 0.924831 5.6992 2.59175 3.29091 4.91603C2.81717 5.39263 2.44773 5.96256 2.20609 6.58961C1.96445 7.21667 1.85589 7.88712 1.88729 8.55839C1.93204 9.5328 2.27407 10.4702 2.86739 11.2444L0.190703 13.926C0.131041 13.9837 0.0834526 14.0526 0.0507145 14.1288C0.0179765 14.205 0.000744334 14.287 2.35853e-05 14.3699C-0.000697163 14.4529 0.0151079 14.5351 0.0465166 14.6119C0.0779253 14.6886 0.124309 14.7584 0.18296 14.817C0.241612 14.8757 0.311357 14.9221 0.388126 14.9535C0.464895 14.9849 0.54715 15.0007 0.630093 15C0.713035 14.9993 0.795004 14.982 0.871215 14.9493C0.947427 14.9165 1.01636 14.869 1.07398 14.8093L3.75004 12.1333C4.57029 12.7737 5.58161 13.1205 6.62225 13.1184C7.31087 13.1084 7.99078 12.9629 8.62315 12.6901C9.25552 12.4173 9.82796 12.0226 10.3078 11.5286C13.0563 8.78014 14.6073 4.37882 14.9265 3.08017C15.0303 2.66551 15.024 2.23095 14.9083 1.81946C14.7927 1.40796 14.5716 1.0338 14.2669 0.733968ZM3.13537 8.50092C3.11186 8.0029 3.19218 7.50544 3.37123 7.04013C3.55028 6.57482 3.82415 6.15184 4.17544 5.79804C4.4428 5.53256 4.72077 5.28332 5.00499 5.03971V9.11183L3.76191 10.3549C3.38312 9.80799 3.16598 9.16548 3.13537 8.50092ZM9.40576 10.6616C8.81082 11.3082 8.00472 11.7213 7.13241 11.8266C6.26009 11.932 5.37882 11.7226 4.64706 11.2363L6.07067 9.81269L7.76226 8.12113H11.3616C10.7958 9.03091 10.1406 9.88195 9.40576 10.6616ZM13.7159 2.77846C13.3394 4.20269 12.7942 5.57687 12.0918 6.87182H9.01159L11.0686 4.81483C11.1283 4.75721 11.1759 4.68828 11.2086 4.61207C11.2413 4.53586 11.2586 4.4539 11.2593 4.37095C11.26 4.28801 11.2442 4.20576 11.2128 4.12899C11.1814 4.05222 11.135 3.98248 11.0764 3.92383C11.0177 3.86518 10.948 3.8188 10.8712 3.78739C10.7944 3.75598 10.7122 3.74018 10.6292 3.7409C10.5463 3.74162 10.4643 3.75885 10.3881 3.79159C10.3119 3.82432 10.243 3.87191 10.1853 3.93157L7.06201 7.05484L6.25432 7.86252V4.06837C8.06024 2.80276 10.0731 1.86188 12.2024 1.28804C12.3012 1.26315 12.4028 1.25036 12.5047 1.24993C12.6684 1.25028 12.8305 1.28297 12.9815 1.3461C13.1325 1.40924 13.2696 1.50159 13.3849 1.61785C13.537 1.76523 13.6475 1.95018 13.7052 2.15398C13.7629 2.35778 13.7658 2.57321 13.7134 2.77846H13.7159Z" fill="#192E35"/>
</svg>
