<svg width="8" height="16" viewBox="0 0 8 16" fill="none" xmlns="http://www.w3.org/2000/svg">
<path d="M6.67096 15.3439C6.59112 15.3435 6.51217 15.3265 6.43863 15.294C6.36509 15.2615 6.29842 15.2141 6.24243 15.1546L1.34767 9.90477C1.0687 9.60631 0.848738 9.25308 0.700393 8.86529C0.552048 8.47751 0.478232 8.0628 0.483173 7.64491C0.488114 7.22703 0.571716 6.81418 0.729189 6.43001C0.886662 6.04585 1.11491 5.69791 1.40087 5.40614L6.4184 0.273524C6.47566 0.214949 6.54336 0.168749 6.61764 0.13756C6.69192 0.106371 6.77132 0.0908056 6.85131 0.0917515C6.9313 0.0926973 7.01031 0.110136 7.08383 0.143073C7.15736 0.176009 7.22395 0.223798 7.27981 0.28371C7.33567 0.343623 7.3797 0.414486 7.4094 0.492254C7.4391 0.570021 7.45387 0.65317 7.45288 0.736954C7.45189 0.820737 7.43515 0.903514 7.40363 0.980557C7.3721 1.0576 7.3264 1.1274 7.26914 1.18598L2.25161 6.31859C1.90658 6.67197 1.70942 7.1542 1.70345 7.65934C1.69748 8.16449 1.88318 8.65124 2.21975 9.01269L7.11451 14.2625C7.17067 14.3222 7.21497 14.3931 7.24486 14.4709C7.27474 14.5486 7.28961 14.6319 7.28862 14.7158C7.28763 14.7996 7.27079 14.8825 7.23908 14.9596C7.20736 15.0366 7.1614 15.1064 7.10385 15.1648C7.04647 15.223 6.97869 15.2688 6.90441 15.2995C6.83012 15.3303 6.75079 15.3454 6.67096 15.3439Z" fill="#192E35"/>
</svg>
