<svg width="15" height="20" viewBox="0 0 15 20" fill="none" xmlns="http://www.w3.org/2000/svg">
<path d="M10.8333 0H4.16667C3.062 0.00132321 2.00296 0.440735 1.22185 1.22185C0.440735 2.00296 0.00132321 3.062 0 4.16667V15.8333C0.00132321 16.938 0.440735 17.997 1.22185 18.7782C2.00296 19.5593 3.062 19.9987 4.16667 20H10.8333C11.938 19.9987 12.997 19.5593 13.7782 18.7782C14.5593 17.997 14.9987 16.938 15 15.8333V4.16667C14.9987 3.062 14.5593 2.00296 13.7782 1.22185C12.997 0.440735 11.938 0.00132321 10.8333 0ZM5 6.66667C5 6.00363 5.26339 5.36774 5.73223 4.8989C6.20107 4.43006 6.83696 4.16667 7.5 4.16667C8.16304 4.16667 8.79893 4.43006 9.26777 4.8989C9.73661 5.36774 10 6.00363 10 6.66667V10C10 10.221 9.9122 10.433 9.75592 10.5893C9.59964 10.7455 9.38768 10.8333 9.16667 10.8333C8.94565 10.8333 8.73369 10.7455 8.57741 10.5893C8.42113 10.433 8.33333 10.221 8.33333 10V9.16667H6.66667V10C6.66667 10.221 6.57887 10.433 6.42259 10.5893C6.26631 10.7455 6.05435 10.8333 5.83333 10.8333C5.61232 10.8333 5.40036 10.7455 5.24408 10.5893C5.0878 10.433 5 10.221 5 10V6.66667ZM7.5 18.3333C7.33518 18.3333 7.17407 18.2845 7.03702 18.1929C6.89998 18.1013 6.79317 17.9712 6.7301 17.8189C6.66703 17.6666 6.65052 17.4991 6.68268 17.3374C6.71483 17.1758 6.7942 17.0273 6.91074 16.9107C7.02729 16.7942 7.17577 16.7148 7.33742 16.6827C7.49908 16.6505 7.66663 16.667 7.8189 16.7301C7.97118 16.7932 8.10132 16.9 8.19289 17.037C8.28446 17.1741 8.33333 17.3352 8.33333 17.5C8.33333 17.721 8.24554 17.933 8.08926 18.0893C7.93298 18.2455 7.72101 18.3333 7.5 18.3333ZM10 14.1667H5C4.77899 14.1667 4.56702 14.0789 4.41074 13.9226C4.25446 13.7663 4.16667 13.5543 4.16667 13.3333C4.16667 13.1123 4.25446 12.9004 4.41074 12.7441C4.56702 12.5878 4.77899 12.5 5 12.5H10C10.221 12.5 10.433 12.5878 10.5893 12.7441C10.7455 12.9004 10.8333 13.1123 10.8333 13.3333C10.8333 13.5543 10.7455 13.7663 10.5893 13.9226C10.433 14.0789 10.221 14.1667 10 14.1667ZM6.66667 7.5V6.66667C6.66667 6.44565 6.75446 6.23369 6.91074 6.07741C7.06703 5.92113 7.27899 5.83333 7.5 5.83333C7.72101 5.83333 7.93298 5.92113 8.08926 6.07741C8.24554 6.23369 8.33333 6.44565 8.33333 6.66667V7.5H6.66667Z" fill="#CBCFD1"/>
</svg>
