<svg width="24" height="32" viewBox="0 0 24 32" fill="none" xmlns="http://www.w3.org/2000/svg">
<path d="M11.8394 15.7859C13.4004 15.7859 14.9265 15.323 16.2244 14.4557C17.5224 13.5884 18.5341 12.3557 19.1315 10.9135C19.7289 9.4712 19.8852 7.8842 19.5806 6.35311C19.2761 4.82203 18.5244 3.41564 17.4205 2.31179C16.3167 1.20795 14.9103 0.456215 13.3792 0.151664C11.8481 -0.152887 10.2611 0.0034199 8.81886 0.600818C7.37661 1.19822 6.1439 2.20988 5.27661 3.50786C4.40932 4.80585 3.94641 6.33187 3.94641 7.89295C3.9485 9.98565 4.78075 11.992 6.26051 13.4718C7.74027 14.9516 9.74666 15.7838 11.8394 15.7859ZM11.8394 2.63099C12.8801 2.63099 13.8974 2.93959 14.7627 3.51779C15.6281 4.09598 16.3025 4.91779 16.7008 5.87928C17.099 6.84078 17.2033 7.89879 17.0002 8.91951C16.7972 9.94023 16.296 10.8778 15.5601 11.6137C14.8242 12.3496 13.8866 12.8508 12.8659 13.0538C11.8452 13.2568 10.7872 13.1526 9.82569 12.7544C8.86419 12.3561 8.04239 11.6817 7.4642 10.8163C6.886 9.95102 6.57739 8.93367 6.57739 7.89295C6.57739 6.49739 7.13178 5.15899 8.11859 4.17218C9.1054 3.18537 10.4438 2.63099 11.8394 2.63099Z" fill="#192E35"/>
<path d="M11.8394 18.4169C8.70048 18.4204 5.6911 19.6688 3.47153 21.8884C1.25196 24.108 0.00348191 27.1174 0 30.2563C0 30.6052 0.138596 30.9398 0.385298 31.1865C0.632001 31.4332 0.966601 31.5718 1.31549 31.5718C1.66438 31.5718 1.99898 31.4332 2.24568 31.1865C2.49239 30.9398 2.63098 30.6052 2.63098 30.2563C2.63098 27.8141 3.60115 25.4719 5.32807 23.7449C7.05499 22.018 9.39719 21.0479 11.8394 21.0479C14.2817 21.0479 16.6239 22.018 18.3508 23.7449C20.0777 25.4719 21.0479 27.8141 21.0479 30.2563C21.0479 30.6052 21.1865 30.9398 21.4332 31.1865C21.6799 31.4332 22.0145 31.5718 22.3634 31.5718C22.7122 31.5718 23.0468 31.4332 23.2935 31.1865C23.5402 30.9398 23.6788 30.6052 23.6788 30.2563C23.6754 27.1174 22.4269 24.108 20.2073 21.8884C17.9877 19.6688 14.9784 18.4204 11.8394 18.4169Z" fill="#192E35"/>
</svg>
