<svg width="28" height="28" viewBox="0 0 28 28" fill="none" xmlns="http://www.w3.org/2000/svg">
<path d="M26.6339 10.7006L22.1084 6.17509C21.8884 5.96258 21.5937 5.84498 21.2878 5.84764C20.9819 5.8503 20.6893 5.97299 20.4729 6.1893C20.2566 6.40561 20.1339 6.69823 20.1313 7.00413C20.1286 7.31002 20.2462 7.60472 20.4587 7.82476L24.9842 12.3503C25.1187 12.4874 25.2362 12.6401 25.3342 12.8053C25.3167 12.8053 25.3027 12.7959 25.2852 12.7959L6.98722 12.8333C6.6778 12.8333 6.38106 12.9562 6.16227 13.175C5.94347 13.3938 5.82056 13.6905 5.82056 13.9999C5.82056 14.3094 5.94347 14.6061 6.16227 14.8249C6.38106 15.0437 6.6778 15.1666 6.98722 15.1666L25.2782 15.1293C25.3109 15.1293 25.3377 15.1129 25.3692 15.1106C25.2658 15.308 25.1345 15.4895 24.9796 15.6496L20.4541 20.1751C20.3426 20.2827 20.2538 20.4115 20.1926 20.5538C20.1315 20.6961 20.0993 20.8492 20.0979 21.0041C20.0966 21.159 20.1261 21.3127 20.1848 21.456C20.2434 21.5994 20.3301 21.7297 20.4396 21.8392C20.5491 21.9488 20.6794 22.0354 20.8228 22.0941C20.9662 22.1527 21.1198 22.1822 21.2747 22.1809C21.4296 22.1796 21.5827 22.1474 21.725 22.0862C21.8674 22.0251 21.9961 21.9362 22.1037 21.8248L26.6292 17.2993C27.5041 16.4241 27.9956 15.2374 27.9956 13.9999C27.9956 12.7625 27.5041 11.5757 26.6292 10.7006H26.6339Z" fill="white"/>
<path d="M8.16667 25.6667H5.83334C4.90508 25.6667 4.01484 25.2979 3.35846 24.6416C2.70208 23.9852 2.33333 23.0949 2.33333 22.1667V5.83334C2.33333 4.90508 2.70208 4.01484 3.35846 3.35846C4.01484 2.70208 4.90508 2.33333 5.83334 2.33333H8.16667C8.47609 2.33333 8.77284 2.21042 8.99163 1.99163C9.21042 1.77283 9.33334 1.47609 9.33334 1.16667C9.33334 0.857248 9.21042 0.560502 8.99163 0.341709C8.77284 0.122916 8.47609 0 8.16667 0L5.83334 0C4.28681 0.0018525 2.80415 0.617029 1.71059 1.71059C0.617029 2.80415 0.0018525 4.28681 0 5.83334L0 22.1667C0.0018525 23.7132 0.617029 25.1959 1.71059 26.2894C2.80415 27.383 4.28681 27.9982 5.83334 28H8.16667C8.47609 28 8.77284 27.8771 8.99163 27.6583C9.21042 27.4395 9.33334 27.1428 9.33334 26.8334C9.33334 26.5239 9.21042 26.2272 8.99163 26.0084C8.77284 25.7896 8.47609 25.6667 8.16667 25.6667Z" fill="white"/>
</svg>
