<svg width="15" height="15" viewBox="0 0 15 15" fill="none" xmlns="http://www.w3.org/2000/svg">
<path d="M14.8948 5.55544C14.767 5.13503 14.5115 4.7683 14.1662 4.50946C13.821 4.25062 13.4042 4.11342 12.9776 4.11815H10.2465L9.41696 1.44762C9.28651 1.02726 9.03018 0.660548 8.68493 0.400372C8.33968 0.140196 7.92335 0 7.49599 0C7.06862 0 6.65229 0.140196 6.30704 0.400372C5.96179 0.660548 5.70546 1.02726 5.57501 1.44762L4.74549 4.11815H2.01437C1.58913 4.11878 1.17496 4.25819 0.831015 4.51648C0.487071 4.77476 0.230945 5.13871 0.0992213 5.55633C-0.0325022 5.97396 -0.0330852 6.4239 0.0975555 6.84188C0.228196 7.25987 0.483378 7.62452 0.826652 7.88376L3.04955 9.56253L2.2044 12.266C2.06782 12.6853 2.06609 13.1389 2.19947 13.5593C2.33285 13.9797 2.59419 14.3444 2.94454 14.5988C3.28888 14.8615 3.70617 15.0022 4.13422 15C4.56228 14.9978 4.97818 14.8528 5.31997 14.5866L7.49599 12.9323L9.67263 14.5846C10.0164 14.8458 10.4314 14.9876 10.8581 14.9898C11.2848 14.9919 11.7011 14.8543 12.0473 14.5966C12.3935 14.3389 12.6516 13.9745 12.7846 13.5557C12.9176 13.1369 12.9187 12.6854 12.7876 12.266L11.9424 9.56253L14.1678 7.88376C14.515 7.62778 14.7732 7.26313 14.9041 6.84379C15.0351 6.42445 15.0318 5.97271 14.8948 5.55544ZM13.4302 6.84099L10.8397 8.79675C10.7333 8.87692 10.6541 8.98976 10.6135 9.11916C10.5729 9.24856 10.5728 9.38791 10.6134 9.51733L11.598 12.6618C11.6478 12.8213 11.6474 12.993 11.5968 13.1522C11.5462 13.3114 11.448 13.45 11.3163 13.5479C11.1847 13.6459 11.0263 13.6982 10.8641 13.6973C10.7019 13.6964 10.5441 13.6425 10.4134 13.5431L7.86605 11.6061C7.75876 11.5247 7.62911 11.4808 7.49599 11.4808C7.36286 11.4808 7.23321 11.5247 7.12592 11.6061L4.57858 13.5431C4.44798 13.6438 4.28974 13.6989 4.12679 13.7004C3.96384 13.702 3.80465 13.6498 3.67231 13.5516C3.53997 13.4534 3.44134 13.3142 3.39074 13.1542C3.34014 12.9942 3.34018 12.8218 3.39087 12.6618L4.37855 9.51733C4.41913 9.38791 4.4191 9.24856 4.37846 9.11916C4.33782 8.98976 4.25866 8.87692 4.15225 8.79675L1.56179 6.84099C1.43133 6.74232 1.33439 6.6036 1.28482 6.44463C1.23526 6.28566 1.23559 6.11458 1.28579 5.95582C1.33598 5.79706 1.43346 5.65875 1.56431 5.56064C1.69516 5.46252 1.85268 5.40963 2.01437 5.40951H5.20245C5.33479 5.40951 5.46372 5.36612 5.57067 5.28559C5.67761 5.20506 5.75705 5.09156 5.79755 4.96141L6.76648 1.84213C6.81621 1.68251 6.9137 1.54331 7.04491 1.44455C7.17611 1.3458 7.33427 1.2926 7.49661 1.2926C7.65895 1.2926 7.81711 1.3458 7.94832 1.44455C8.07952 1.54331 8.17701 1.68251 8.22674 1.84213L9.19567 4.96141C9.23617 5.09156 9.31561 5.20506 9.42255 5.28559C9.5295 5.36612 9.65843 5.40951 9.79078 5.40951H12.9789C13.1405 5.40963 13.2981 5.46252 13.4289 5.56064C13.5598 5.65875 13.6572 5.79706 13.7074 5.95582C13.7576 6.11458 13.758 6.28566 13.7084 6.44463C13.6588 6.6036 13.5619 6.74232 13.4314 6.84099H13.4302Z" fill="#192E35"/>
</svg>
