<svg width="15" height="15" viewBox="0 0 15 15" fill="none" xmlns="http://www.w3.org/2000/svg">
<path d="M11.875 2.5H9.375V1.875C9.375 1.37772 9.17746 0.900806 8.82583 0.549175C8.4742 0.197544 7.99728 0 7.5 0C7.00272 0 6.52581 0.197544 6.17417 0.549175C5.82254 0.900806 5.625 1.37772 5.625 1.875V2.5H3.125C2.2965 2.50099 1.50222 2.83055 0.916387 3.41639C0.330551 4.00222 0.000992411 4.7965 0 5.625L0 11.875C0.000992411 12.7035 0.330551 13.4978 0.916387 14.0836C1.50222 14.6694 2.2965 14.999 3.125 15H11.875C12.7035 14.999 13.4978 14.6694 14.0836 14.0836C14.6694 13.4978 14.999 12.7035 15 11.875V5.625C14.999 4.7965 14.6694 4.00222 14.0836 3.41639C13.4978 2.83055 12.7035 2.50099 11.875 2.5ZM6.875 1.875C6.875 1.70924 6.94085 1.55027 7.05806 1.43306C7.17527 1.31585 7.33424 1.25 7.5 1.25C7.66576 1.25 7.82473 1.31585 7.94194 1.43306C8.05915 1.55027 8.125 1.70924 8.125 1.875V3.125C8.125 3.29076 8.05915 3.44973 7.94194 3.56694C7.82473 3.68415 7.66576 3.75 7.5 3.75C7.33424 3.75 7.17527 3.68415 7.05806 3.56694C6.94085 3.44973 6.875 3.29076 6.875 3.125V1.875ZM13.75 11.875C13.75 12.3723 13.5525 12.8492 13.2008 13.2008C12.8492 13.5525 12.3723 13.75 11.875 13.75H3.125C2.62772 13.75 2.15081 13.5525 1.79917 13.2008C1.44754 12.8492 1.25 12.3723 1.25 11.875V5.625C1.25 5.12772 1.44754 4.65081 1.79917 4.29918C2.15081 3.94754 2.62772 3.75 3.125 3.75H5.74C5.86728 4.11534 6.1051 4.43202 6.42047 4.65611C6.73584 4.8802 7.11312 5.00059 7.5 5.00059C7.88688 5.00059 8.26417 4.8802 8.57953 4.65611C8.8949 4.43202 9.13272 4.11534 9.26 3.75H11.875C12.3723 3.75 12.8492 3.94754 13.2008 4.29918C13.5525 4.65081 13.75 5.12772 13.75 5.625V11.875ZM6.25 6.25H3.125C2.95924 6.25 2.80027 6.31585 2.68306 6.43306C2.56585 6.55027 2.5 6.70924 2.5 6.875V11.875C2.5 12.0408 2.56585 12.1997 2.68306 12.3169C2.80027 12.4342 2.95924 12.5 3.125 12.5H6.25C6.41576 12.5 6.57473 12.4342 6.69194 12.3169C6.80915 12.1997 6.875 12.0408 6.875 11.875V6.875C6.875 6.70924 6.80915 6.55027 6.69194 6.43306C6.57473 6.31585 6.41576 6.25 6.25 6.25ZM5.625 11.25H3.75V7.5H5.625V11.25ZM12.5 9.375C12.5 9.54076 12.4342 9.69973 12.3169 9.81694C12.1997 9.93415 12.0408 10 11.875 10H8.75C8.58424 10 8.42527 9.93415 8.30806 9.81694C8.19085 9.69973 8.125 9.54076 8.125 9.375C8.125 9.20924 8.19085 9.05027 8.30806 8.93306C8.42527 8.81585 8.58424 8.75 8.75 8.75H11.875C12.0408 8.75 12.1997 8.81585 12.3169 8.93306C12.4342 9.05027 12.5 9.20924 12.5 9.375ZM12.5 6.875C12.5 7.04076 12.4342 7.19973 12.3169 7.31694C12.1997 7.43415 12.0408 7.5 11.875 7.5H8.75C8.58424 7.5 8.42527 7.43415 8.30806 7.31694C8.19085 7.19973 8.125 7.04076 8.125 6.875C8.125 6.70924 8.19085 6.55027 8.30806 6.43306C8.42527 6.31585 8.58424 6.25 8.75 6.25H11.875C12.0408 6.25 12.1997 6.31585 12.3169 6.43306C12.4342 6.55027 12.5 6.70924 12.5 6.875ZM11.25 11.875C11.25 12.0408 11.1842 12.1997 11.0669 12.3169C10.9497 12.4342 10.7908 12.5 10.625 12.5H8.75C8.58424 12.5 8.42527 12.4342 8.30806 12.3169C8.19085 12.1997 8.125 12.0408 8.125 11.875C8.125 11.7092 8.19085 11.5503 8.30806 11.4331C8.42527 11.3158 8.58424 11.25 8.75 11.25H10.625C10.7908 11.25 10.9497 11.3158 11.0669 11.4331C11.1842 11.5503 11.25 11.7092 11.25 11.875Z" fill="#CBCFD1"/>
</svg>
